{"title":"Shuddh Desi Romance 2013 DVDRip x264 Hindi ESubs - ViZNU [P2PDL]","uid":9077915,"size":465546946,"categoryP":"video","categoryS":"movies","magnet":"?xt=urn:btih:62162c54f64c8ec3c56cc10a5325f4d2cd4e4052&amp;dn=Shuddh+Desi+Romance+2013+DVDRip+x264+Hindi+ESubs+-+ViZNU+%5BP2PDL%5D&amp;tr=udp%3A%2F%2Ftracker.openbittorrent.com%3A80&amp;tr=udp%3A%2F%2Fopen.demonii.com%3A1337&amp;tr=udp%3A%2F%2Ftracker.coppersurfer.tk%3A6969&amp;tr=udp%3A%2F%2Fexodus.desync.com%3A6969","seeders":1,"leechers":1,"uploader":"ValidusVyto","files":-1,"time":1382326431,"description":"_______ Visit us at our Semi Public Bittorrent Community ________\n  &lt;a href=&quot;\nhttp://p2pdl.com&quot; rel=&quot;nofollow&quot; target=&quot;_NEW&quot;&gt;\nhttp://p2pdl.com&lt;/a&gt;  _____________________________ &lt;a href=&quot; http://p2pdl.com&quot; rel=&quot;nofollow&quot; target=&quot;_NEW&quot;&gt; http://p2pdl.com&lt;/a&gt;\n\n\n\nShuddh Desi Romance 2013 DVDRip x264 Hindi ESubs - ViZNU\n\n\nGenre: Comedy | Drama | Romance\nPlot: A story about the hair-raising minefield between love, attraction and commitment. \nDirector: Maneesh Sharma\nStars: Sushant Singh Rajput, Parineeti Chopra, Rishi Kapoor.\nRated: U/A\n\n\nIMDb: &lt;a href=&quot;\nhttp://www.imdb.com/title/tt2988272/&quot; rel=&quot;nofollow&quot; target=&quot;_NEW&quot;&gt;\nhttp://www.imdb.com/title/tt2988272/&lt;/a&gt;\n\nTrailer:\n\n\nFormat                         : MPEG-4\nFile size                      : 437 MiB\nDuration                       : 2h 6mn\nOverall bit rate               : 481 Kbps\n\nVideo\nFormat                         : AVC\nBit rate                       : 438 Kbps\nWidth                          : 640 pixels\nHeight                         : 256 pixels\nDisplay aspect ratio           : 2.500\nFrame rate mode                : Constant\nFrame rate                     : 25.000 fps\nBit depth                      : 10 bits\nStream size                    : 397 MiB (91%)\nWriting library                : x264 core 138 r2358\n\nAudio\nFormat                         : AAC\nBit rate                       : 40.0 Kbps\nChannel(s)                     : 2 channels\nChannel positions              : Front: L R\nSampling rate                  : 48.0 KHz\nStream size                    : 36.2 MiB (8%)\nLanguage                       : Hindi\n\nSubtitle                       : Yes(English)\n\nSource                         : DVD9\n &lt;a href=&quot;\nhttp://ultraimg.com/images/qiDL.png&quot; rel=&quot;nofollow&quot; target=&quot;_NEW&quot;&gt;\nhttp://ultraimg.com/images/qiDL.png&lt;/a&gt; &lt;a href=&quot;\nhttp://ultraimg.com/images/FWczr.png&quot; rel=&quot;nofollow&quot; target=&quot;_NEW&quot;&gt;\nhttp://ultraimg.com/images/FWczr.png&lt;/a&gt; &lt;a href=&quot;\nhttp://ultraimg.com/images/0NzGP.png&quot; rel=&quot;nofollow&quot; target=&quot;_NEW&quot;&gt;\nhttp://ultraimg.com/images/0NzGP.png&lt;/a&gt; &lt;a href=&quot;\nhttp://ultraimg.com/images/EVJxN.png&quot; rel=&quot;nofollow&quot; target=&quot;_NEW&quot;&gt;\nhttp://ultraimg.com/images/EVJxN.png&lt;/a&gt; &lt;a href=&quot;\nhttp://ultraimg.com/images/PaxE3.png&quot; rel=&quot;nofollow&quot; target=&quot;_NEW&quot;&gt;\nhttp://ultraimg.com/images/PaxE3.png&lt;/a&gt; &lt;a href=&quot;\nhttp://ultraimg.com/images/XmU4Q.png&quot; rel=&quot;nofollow&quot; target=&quot;_NEW&quot;&gt;\nhttp://ultraimg.com/images/XmU4Q.png&lt;/a&gt; &lt;a href=&quot;\nhttp://ultraimg.com/images/ajKJR.png&quot; rel=&quot;nofollow&quot; target=&quot;_NEW&quot;&gt;\nhttp://ultraimg.com/images/ajKJR.png&lt;/a&gt; &lt;a href=&quot;\nhttp://ultraimg.com/images/yshdA.png&quot; rel=&quot;nofollow&quot; target=&quot;_NEW&quot;&gt;\nhttp://ultraimg.com/images/yshdA.png&lt;/a&gt;\n\n----------------------------------------------------------------------------------------------------\n\n\nEncoded using revolutionary 10bit encoding, which enables us to provide you more crispier \nand sharper images at small sizes, just make sure you follow our instructions without a fault.\nRecommend to you to use latest version of VLC player. Install K-Lite Codec Pack or shark007 codecs\nin case of any kind of problem in playback (For non-VLC Media Player users). Alternatively, install\nCore AVC codecs, the fastest decoder that there is coupled with Community Center Codec Pack and play\non Windows Media Player Classic. Check sample to be sure.\nEnjoy!\n\nEncoder Notes:Looking For Early Access To Anything You Can Provide DVDScr, R5, DVDR, BluRay, Direct\nAudio, Music Releases and Seedboxes. We require dedicated servers, so as to do more \nand fast releases of movies.\nIf You Got anything to offer please contact us at &quot;&lt;a class=&quot;__cf_email__&quot; href=&quot;/cdn-cgi/l/email-protection&quot; data-cfemail=&quot;dfafadb89fb7aaacb7f1bcb0b2&quot;&gt;[email&amp;#160;protected]&lt;/a&gt;&lt;script cf-hash='f9e31' type=&quot;text/javascript&quot;&gt;\n/* &lt;![CDATA[ */!function(){try{var t=&quot;currentScript&quot;in document?document.currentScript:function(){for(var t=document.getElementsByTagName(&quot;script&quot;),e=t.length;e--;)if(t[e].getAttribute(&quot;cf-hash&quot;))return t[e]}();if(t&amp;&amp;t.previousSibling){var e,r,n,i,c=t.previousSibling,a=c.getAttribute(&quot;data-cfemail&quot;);if(a){for(e=&quot;&quot;,r=parseInt(a.substr(0,2),16),n=2;a.length-n;n+=2)i=parseInt(a.substr(n,2),16)^r,e+=String.fromCharCode(i);e=document.createTextNode(e),c.parentNode.replaceChild(e,c)}}}catch(u){}}();/* ]]&gt; */&lt;/script&gt;&quot;.\n\nFacebook Fan Page:  \nSearch P2PDL on FB and hit like!!!\n\nFor more of our team uploads visit @                                             &lt;a href=&quot; http://thepiratebay.se/user/vitamin_x&quot; rel=&quot;nofollow&quot; target=&quot;_NEW&quot;&gt; http://thepiratebay.se/user/vitamin_x&lt;/a&gt;","torrent":{"xt":"urn:btih:62162c54f64c8ec3c56cc10a5325f4d2cd4e4052","amp;dn":"Shuddh+Desi+Romance+2013+DVDRip+x264+Hindi+ESubs+-+ViZNU+%5BP2PDL%5D","amp;tr":["udp%3A%2F%2Ftracker.openbittorrent.com%3A80","udp%3A%2F%2Fopen.demonii.com%3A1337","udp%3A%2F%2Ftracker.coppersurfer.tk%3A6969","udp%3A%2F%2Fexodus.desync.com%3A6969"],"infoHash":"62162c54f64c8ec3c56cc10a5325f4d2cd4e4052","infoHashBuffer":{"type":"Buffer","data":[98,22,44,84,246,76,142,195,197,108,193,10,83,37,244,210,205,78,64,82]},"announce":[],"urlList":[]}}